<?xml version="1.0" encoding="iso-8859-1"?>
<!-- Uploaded to: SVG Repo, www.svgrepo.com, Generator: SVG Repo Mixer Tools -->
<!DOCTYPE svg PUBLIC "-//W3C//DTD SVG 1.1//EN" "http://www.w3.org/Graphics/SVG/1.1/DTD/svg11.dtd">
<svg fill="#000000" height="800px" width="800px" version="1.1" id="Capa_1" xmlns="http://www.w3.org/2000/svg" xmlns:xlink="http://www.w3.org/1999/xlink" 
	 viewBox="0 0 340 340" xml:space="preserve">
<g>
	<path d="M299.036,121.681h-91.741v2.572c0,20.564-16.73,37.295-37.295,37.295c-20.564,0-37.295-16.73-37.295-37.295v-2.572H40.964
		C18.376,121.681,0,140.059,0,162.646v13.517c0,17.88,11.515,33.122,27.519,38.699l8.85,86.735
		c2.571,20.44,20.046,35.854,40.646,35.854h185.972c20.6,0,38.075-15.414,40.646-35.854l8.85-86.735
		C328.485,209.285,340,194.043,340,176.163v-13.517C340,140.059,321.624,121.681,299.036,121.681z M120.469,279.228
		c0,7.816-6.336,14.15-14.152,14.15c-7.816,0-14.152-6.334-14.152-14.15v-55.899c0-7.815,6.336-14.152,14.152-14.152
		c7.815,0,14.152,6.337,14.152,14.152V279.228z M184.152,279.228c0,7.816-6.337,14.15-14.152,14.15
		c-7.815,0-14.152-6.334-14.152-14.15v-55.899c0-7.815,6.337-14.152,14.152-14.152c7.815,0,14.152,6.337,14.152,14.152V279.228z
		 M247.835,279.228c0,7.816-6.336,14.15-14.152,14.15c-7.815,0-14.152-6.334-14.152-14.15v-55.899
		c0-7.815,6.336-14.152,14.152-14.152c7.816,0,14.152,6.337,14.152,14.152V279.228z"/>
	<path d="M170,146.548c12.313,0,22.295-9.982,22.295-22.295v-99.41c0-12.313-9.982-22.295-22.295-22.295
		c-12.313,0-22.295,9.982-22.295,22.295v99.41C147.705,136.566,157.687,146.548,170,146.548z"/>
</g>
</svg>